<svg width="30" height="32" viewBox="0 0 30 32" fill="none" xmlns="http://www.w3.org/2000/svg">
<path d="M16.3335 3.99967C21.5069 3.99967 25.6669 8.18634 25.6669 13.333C25.6669 17.0663 23.4935 20.253 20.3335 21.7463V27.9997H11.0002V23.9997H9.66688C8.18688 23.9997 7.00022 22.813 7.00022 21.333V17.333H5.00022C4.44022 17.333 4.12022 16.6663 4.44022 16.253L7.00022 12.8797C7.11769 10.4841 8.15252 8.22553 9.89018 6.57227C11.6278 4.91901 13.9351 3.99782 16.3335 3.99967ZM16.3335 1.33301C10.2135 1.33301 5.14688 5.89301 4.41355 11.8663L2.33355 14.6663H2.29355L2.26688 14.7063C1.53355 15.7197 1.44022 17.053 2.01355 18.1597C2.49355 19.0797 3.34688 19.7197 4.33355 19.9197V21.333C4.33355 23.7997 6.04022 25.893 8.33355 26.493V30.6663H23.0002V23.333C26.3335 21.1063 28.3335 17.413 28.3335 13.333C28.3335 6.70634 22.9469 1.33301 16.3335 1.33301ZM22.1069 12.3997L19.4935 13.0797L21.4135 15.0263C21.8802 15.4797 21.8802 16.253 21.4135 16.7197C20.9469 17.1863 20.1735 17.1863 19.7202 16.7197L17.7869 14.7997L17.0935 17.413C16.9335 18.0663 16.2802 18.4263 15.6669 18.2663C15.5116 18.2274 15.3656 18.1582 15.2372 18.0626C15.1089 17.9671 15.0007 17.8471 14.9189 17.7095C14.8371 17.5719 14.7833 17.4195 14.7606 17.2611C14.738 17.1027 14.7469 16.9413 14.7869 16.7863L15.4935 14.173L12.8802 14.8797C12.7252 14.9196 12.5639 14.9286 12.4055 14.9059C12.247 14.8833 12.0946 14.8295 11.9571 14.7477C11.8195 14.6659 11.6995 14.5577 11.6039 14.4293C11.5083 14.3009 11.4391 14.1549 11.4002 13.9997C11.2402 13.3997 11.6135 12.733 12.2535 12.573L14.8669 11.8797L12.9469 9.94634C12.7463 9.71724 12.6403 9.42045 12.6504 9.11611C12.6605 8.81177 12.7859 8.52264 13.0012 8.30732C13.2165 8.092 13.5056 7.96659 13.81 7.95651C14.1143 7.94642 14.4111 8.05242 14.6402 8.25301L16.5869 10.173L17.2669 7.55967C17.4269 6.90634 18.0935 6.53301 18.7202 6.70634C19.3736 6.87967 19.7469 7.53301 19.5736 8.17301L18.8669 10.7997L21.4936 10.093C22.1336 9.91967 22.7869 10.293 22.9602 10.9463C23.1335 11.573 22.7602 12.2397 22.1069 12.3997Z" fill="#9D9EA2" stroke="white" stroke-width="1.6"/>
</svg>
